<?xml version="1.0" encoding="utf-8"?>
<!-- Generator: Adobe Illustrator 16.0.0, SVG Export Plug-In . SVG Version: 6.00 Build 0)  -->
<!DOCTYPE svg PUBLIC "-//W3C//DTD SVG 1.1//EN" "http://www.w3.org/Graphics/SVG/1.1/DTD/svg11.dtd">
<svg version="1.1" id="Capa_1" xmlns="http://www.w3.org/2000/svg" xmlns:xlink="http://www.w3.org/1999/xlink" x="0px" y="0px"
	 width="300px" height="250px" viewBox="0 0 300 250" enable-background="new 0 0 300 250" xml:space="preserve">
<g>
	<g>
		<path fill="#F9BDBB" d="M101.57,41.84h94.141c2.887,0,5.229-2.343,5.229-5.23V26.15c0-8.65-7.039-15.69-15.69-15.69h-18.556
			C162.991,4.08,156.141,0,148.641,0s-14.351,4.08-18.054,10.46h-18.556c-8.65,0-15.69,7.04-15.69,15.69V36.61
			C96.34,39.498,98.684,41.84,101.57,41.84z M216.631,135.981c-31.726,0-57.53,25.805-57.53,57.529
			c0,15.847,6.443,30.221,16.841,40.638c0.021,0.021,0.021,0.054,0.042,0.073c0.105,0.105,0.24,0.179,0.355,0.294
			c2.51,2.468,5.241,4.727,8.17,6.704c0.324,0.22,0.669,0.398,1.004,0.606c2.792,1.81,5.722,3.41,8.818,4.717
			c0.355,0.147,0.721,0.253,1.087,0.398c3.138,1.244,6.381,2.27,9.759,2.95c0.199,0.042,0.409,0.052,0.607,0.094
			c3.515,0.669,7.135,1.057,10.847,1.057c3.714,0,7.332-0.388,10.857-1.057c0.199-0.042,0.408-0.052,0.607-0.094
			c3.379-0.69,6.621-1.706,9.759-2.961c0.355-0.146,0.732-0.25,1.088-0.397c3.097-1.307,6.025-2.907,8.818-4.717
			c0.335-0.209,0.679-0.388,1.004-0.607c2.929-1.977,5.648-4.236,8.17-6.704c0.104-0.104,0.24-0.178,0.355-0.293
			c0.021-0.021,0.021-0.053,0.042-0.073c10.387-10.407,16.83-24.781,16.83-40.628C274.162,161.786,248.356,135.981,216.631,135.981z
			 M254.779,220.875c-4.832-8.295-12.145-14.687-20.784-18.421c5.355-4.791,8.786-11.672,8.786-19.402
			c0-14.415-11.735-26.15-26.15-26.15c-14.413,0-26.149,11.735-26.149,26.15c0,7.73,3.43,14.611,8.787,19.402
			c-8.641,3.734-15.953,10.126-20.785,18.421c-5.555-7.729-8.923-17.134-8.923-27.364c0-25.95,21.12-47.07,47.07-47.07
			c25.952,0,47.07,21.12,47.07,47.07C263.701,203.741,260.334,213.146,254.779,220.875z M148.641,193.511
			c0-37.488,30.501-67.99,67.99-67.99c6.528,0,13.065,0.963,19.425,2.855c1.59,0.492,3.306,0.178,4.612-0.815
			c1.339-0.983,2.113-2.542,2.113-4.195V36.61c0-8.65-7.039-15.69-15.689-15.69h-10.461c-2.886,0-5.229,2.343-5.229,5.23V36.61
			c0,8.65-7.04,15.69-15.69,15.69H101.57c-8.65,0-15.69-7.04-15.69-15.69V26.15c0-2.887-2.343-5.23-5.23-5.23H70.19
			c-8.65,0-15.69,7.04-15.69,15.69v198.742c0,8.65,7.04,15.69,15.69,15.69h95.239c0.074,0,0.157,0.01,0.209,0
			c2.888,0,5.231-2.344,5.231-5.229c0-1.904-1.015-3.557-2.521-4.478C155.628,228.511,148.641,211.565,148.641,193.511z"/>
	</g>
</g>
</svg>
