<?xml version="1.0" encoding="utf-8"?>
<!-- Generator: Adobe Illustrator 16.0.0, SVG Export Plug-In . SVG Version: 6.00 Build 0)  -->
<!DOCTYPE svg PUBLIC "-//W3C//DTD SVG 1.1//EN" "http://www.w3.org/Graphics/SVG/1.1/DTD/svg11.dtd">
<svg version="1.1" id="Capa_1" xmlns="http://www.w3.org/2000/svg" xmlns:xlink="http://www.w3.org/1999/xlink" x="0px" y="0px"
	 width="300px" height="250px" viewBox="0 0 300 250" enable-background="new 0 0 300 250" xml:space="preserve">
<polygon fill="#DCEDC8" points="162.107,53.664 162.107,234.226 198.444,234.226 198.444,250 101.553,250 101.553,234.226 
	137.892,234.226 137.892,53.664 59.153,53.664 59.153,37.89 137.892,37.89 137.892,0 162.107,0 162.107,37.89 240.85,37.89 
	240.85,53.664 "/>
<path fill="#DCEDC8" d="M59.153,53.664l-41.421,96.792c0,13.264,18.549,24.043,41.421,24.043c22.888,0,41.437-10.779,41.437-24.043
	L59.153,53.664z M24.604,150.455l34.548-80.739l34.564,80.739H24.604z"/>
<path fill="#DCEDC8" d="M240.85,53.664l-41.438,96.792c0,13.264,18.55,24.043,41.438,24.043c22.872,0,41.418-10.779,41.418-24.043
	L240.85,53.664z M206.283,150.455l34.564-80.739l34.548,80.739H206.283z"/>
</svg>
