<?xml version="1.0" encoding="utf-8"?>
<!-- Generator: Adobe Illustrator 16.0.0, SVG Export Plug-In . SVG Version: 6.00 Build 0)  -->
<!DOCTYPE svg PUBLIC "-//W3C//DTD SVG 1.1//EN" "http://www.w3.org/Graphics/SVG/1.1/DTD/svg11.dtd">
<svg version="1.1" id="Capa_1" xmlns="http://www.w3.org/2000/svg" xmlns:xlink="http://www.w3.org/1999/xlink" x="0px" y="0px"
	 width="300px" height="250px" viewBox="0 0 300 250" enable-background="new 0 0 300 250" xml:space="preserve">
<g>
	<path fill="#B2EBF2" d="M276.63,230.908l-69.065-69.348c13.194-16.846,21.336-37.903,21.336-60.925
		c0-54.187-44.078-97.986-97.984-97.986s-98.267,44.08-98.267,97.986s44.08,97.986,97.986,97.986
		c23.021,0,44.079-7.862,60.925-21.338l69.348,69.347c2.246,2.247,5.054,3.37,7.861,3.37s5.615-1.123,7.86-3.37
		C281.123,242.419,281.123,235.12,276.63,230.908z M55.11,100.635c0-41.833,33.972-75.525,75.525-75.525
		c41.553,0,75.524,33.972,75.524,75.525c0,41.553-33.691,75.805-75.524,75.805C88.802,176.44,55.11,142.469,55.11,100.635z"/>
	<path fill="#B2EBF2" d="M130.636,40.552c-33.13,0-60.083,26.953-60.083,60.083c0,6.177,5.054,11.23,11.23,11.23
		c6.177,0,11.23-5.054,11.23-11.23c0-20.777,16.845-37.622,37.623-37.622c6.176,0,11.23-5.053,11.23-11.23
		C141.866,45.606,136.812,40.552,130.636,40.552z"/>
</g>
</svg>
