<?xml version="1.0" encoding="utf-8"?>
<!-- Generator: Adobe Illustrator 16.0.0, SVG Export Plug-In . SVG Version: 6.00 Build 0)  -->
<!DOCTYPE svg PUBLIC "-//W3C//DTD SVG 1.1//EN" "http://www.w3.org/Graphics/SVG/1.1/DTD/svg11.dtd">
<svg version="1.1" id="Capa_1" xmlns="http://www.w3.org/2000/svg" xmlns:xlink="http://www.w3.org/1999/xlink" x="0px" y="0px"
	 width="318.073px" height="247.056px" viewBox="0 0 318.073 247.056" enable-background="new 0 0 318.073 247.056"
	 xml:space="preserve">
<g>
	<path fill="none" stroke="#4F43F9" stroke-width="0.5346" stroke-miterlimit="10" d="M-56.237-10.285
		C-33.539,0.968,19.141,85.423,74.188,138.527C128.04,88.09,180.119,8.455,204.248-6.913c-0.772,0.461-1.527,0.938-2.271,1.455
		C163.249,17.696,119.19,29.269,75.034,28.959C30.881,28.616-13.004,16.395-51.388-7.329C-52.948-8.45-54.569-9.425-56.237-10.285z"
		/>
	<path fill="none" stroke="#4F43F9" stroke-width="0.5346" stroke-miterlimit="10" d="M59.161,151.77
		c-77.421,63.434-133.553,70.239-133.359,70.35c40.786,31.546,91.812,50.513,147.346,50.923h0.008h0.002
		c72.594,0.536,138.01-30.674,183.087-80.646c0.004-0.016,0.014-0.026,0.03-0.039c1.111-1.238,2.218-2.485,3.307-3.748
		c0.171-0.197,0.342-0.399,0.514-0.601c0.958-1.109,1.901-2.231,2.835-3.356c0.34-0.408,0.669-0.815,1.006-1.227
		c0.777-0.956,1.557-1.913,2.323-2.881c0.579-0.726,1.143-1.462,1.712-2.2c0.523-0.675,1.049-1.346,1.569-2.025
		c24.201-31.972,40.705-70.115,46.749-111.686c0.293-2.577,0.468-5.189,0.486-7.85c0.302-40.847-32.564-74.208-73.409-74.51
		c-13.284-0.098-25.763,3.332-36.578,9.385C181.884,3.551,120.103,101.843,59.161,151.77z"/>
	<path fill="none" stroke="#4F43F9" stroke-width="0.5346" stroke-miterlimit="10" d="M-167.178,53.209
		c-0.024,3.385,0.201,6.708,0.613,9.965c0.018,0.275,0.015,0.553,0.058,0.808l-0.015,0.014c0.303,2.125,0.629,4.232,0.984,6.344
		c0.094,0.526,0.195,1.043,0.283,1.568c0.227,1.296,0.466,2.585,0.712,3.875c0.197,0.989,0.399,1.973,0.601,2.96
		c0.163,0.784,0.327,1.575,0.496,2.357c0.275,1.287,0.571,2.57,0.874,3.852c0.099,0.436,0.201,0.874,0.31,1.313
		c0.369,1.541,0.755,3.081,1.15,4.61c0.023,0.107,0.056,0.215,0.085,0.322C-133.689,195.177-39.43,272.21,73.231,273.043l0,0
		l0.009-0.001c55.536,0.411,106.836-17.801,148.069-48.742c0.203-0.106-55.82-7.74-132.293-72.309
		C28.82,101.169-31.505,1.977-56.237-10.285c-10.73-6.212-23.156-9.826-36.438-9.923C-133.524-20.509-166.876,12.364-167.178,53.209
		z"/>
</g>
</svg>
