<?xml version="1.0" encoding="utf-8"?>
<!-- Generator: Adobe Illustrator 16.0.0, SVG Export Plug-In . SVG Version: 6.00 Build 0)  -->
<!DOCTYPE svg PUBLIC "-//W3C//DTD SVG 1.1//EN" "http://www.w3.org/Graphics/SVG/1.1/DTD/svg11.dtd">
<svg version="1.1" id="Capa_1" xmlns="http://www.w3.org/2000/svg" xmlns:xlink="http://www.w3.org/1999/xlink" x="0px" y="0px"
	 width="612px" height="103px" viewBox="0 0 612 103" enable-background="new 0 0 612 103" xml:space="preserve">
<g>
	<defs>
		<rect id="SVGID_1_" y="-76" width="613.819" height="178.146"/>
	</defs>
	<clipPath id="SVGID_2_">
		<use xlink:href="#SVGID_1_"  overflow="visible"/>
	</clipPath>
	<g clip-path="url(#SVGID_2_)">
		<path fill="#00FFFF" d="M140.816,16.485c28.938,14.113,96.824,121.194,167.467,188.297
			c68.052-64.741,133.649-166.609,164.248-186.48c-0.987,0.628-1.974,1.264-2.924,1.891
			c-49.076,29.889-105.089,45.019-161.324,45.019c-56.215,0-112.228-15.13-161.313-45.019
			C144.958,18.772,142.874,17.518,140.816,16.485z"/>
		
			<radialGradient id="SVGID_3_" cx="244.7495" cy="4074.3955" r="223.3716" gradientTransform="matrix(0 -1 -1 0 4649.9648 270.1992)" gradientUnits="userSpaceOnUse">
			<stop  offset="0.0049" style="stop-color:#2A2180"/>
			<stop  offset="0.4311" style="stop-color:#3E30BD"/>
			<stop  offset="0.8114" style="stop-color:#4D3CED"/>
			<stop  offset="1" style="stop-color:#5341FF"/>
		</radialGradient>
		<path fill="url(#SVGID_3_)" d="M616.42,98.327c0,4.336-0.313,8.598-0.867,12.703c0,0.388,0,0.784-0.074,1.098l0,0
			c-0.396,2.684-0.829,5.368-1.338,8.117c-0.082,0.554-0.165,1.273-0.321,1.9c-0.314,1.651-0.628,3.312-0.941,4.963
			c-0.323,1.181-0.563,2.454-0.83,3.792c-0.203,0.94-0.434,1.965-0.591,2.997c-0.396,1.569-0.83,3.229-1.181,4.881
			c-0.166,0.553-0.313,1.023-0.406,1.66c-0.47,1.974-1.015,3.938-1.494,5.839c-0.073,0.147-0.073,0.314-0.147,0.388
			c-18.137,67.019-58.117,124.978-111.805,165.899c-0.157-0.157-71.445-9.548-169.137-90.754
			c-6.347-5.369-12.685-11.043-19.031-17.028C378.862,137.68,446.748,30.599,475.76,16.485
			c13.718-7.805,29.529-12.297,46.476-12.297C574.234,4.188,616.42,46.299,616.42,98.327z"/>
		
			<radialGradient id="SVGID_4_" cx="244.7495" cy="-1024.083" r="223.4575" gradientTransform="matrix(0 -1 1 0 1064.9492 270.1992)" gradientUnits="userSpaceOnUse">
			<stop  offset="0.0049" style="stop-color:#1E8B4A"/>
			<stop  offset="0.3272" style="stop-color:#2FB164"/>
			<stop  offset="0.7761" style="stop-color:#44E184"/>
			<stop  offset="1" style="stop-color:#4CF390"/>
		</radialGradient>
		<path fill="url(#SVGID_4_)" d="M0,98.327c0,4.336,0.351,8.598,0.909,12.703c0.115,0.388,0.115,0.784,0.115,1.098l0,0
			c0.392,2.684,0.862,5.368,1.301,8.117c0.12,0.554,0.281,1.273,0.355,1.9c0.318,1.651,0.632,3.312,0.987,4.963
			c0.277,1.181,0.512,2.454,0.747,3.792c0.282,0.94,0.471,1.965,0.715,2.997c0.313,1.569,0.706,3.229,1.102,4.881
			c0.157,0.553,0.277,1.023,0.471,1.66c0.47,1.974,0.941,3.938,1.499,5.839c0,0.147,0,0.314,0.079,0.388
			c18.136,67.019,58.102,124.978,111.809,165.899c0.147-0.157,71.511-9.548,169.119-90.754c6.393-5.369,12.693-11.043,19.076-17.028
			C237.64,137.68,169.755,30.599,140.816,16.485C127.026,8.681,111.177,4.188,94.259,4.188C42.263,4.188,0,46.299,0,98.327z"/>
		<path fill="#2E248E" d="M120.088,312.564c0.074,0.073-0.046,0.073-0.157,0.073c52.231,39.897,117.478,63.55,188.278,63.55
			c70.8,0,136.02-23.652,188.214-63.55c0,0-0.092-0.073,0-0.073c-0.803-0.24-71.834-9.861-169.137-90.754
			c-6.347-5.369-12.685-11.043-19.004-17.028c-6.383,5.985-12.683,11.659-19.076,17.028
			C191.599,303.017,120.236,312.407,120.088,312.564z"/>
	</g>
</g>
</svg>
