<svg id="Grupo_69" data-name="Grupo 69" xmlns="http://www.w3.org/2000/svg" width="40.774" height="40.776" viewBox="0 0 40.774 40.776">
  <defs>
    <style>
      .cls-1 {
        fill: #fff;
      }
    </style>
  </defs>
  <path id="Trazado_16" data-name="Trazado 16" class="cls-1" d="M196.725,222.582a2.1,2.1,0,0,1-1.414-.547l-21.061-19.141a2.1,2.1,0,0,1,2.83-3.114l21.061,19.141a2.1,2.1,0,0,1-1.416,3.661Z" transform="translate(-161.459 -185.33)"/>
  <g id="Grupo_14" data-name="Grupo 14" transform="translate(0 0)">
    <path id="Trazado_17" data-name="Trazado 17" class="cls-1" d="M29.431,327.309l-2.2-2a27.349,27.349,0,0,1-5.9,3.533,19.783,19.783,0,0,1-7.831,1.707c-3.232,0-5.647-.943-6.523-1.819l-2.683-2.683a1.152,1.152,0,0,1,0-1.627l6.44-6.44a1.15,1.15,0,0,1,1.627,0l4.174,4.174a1.085,1.085,0,0,0,.677.313c.377.031.756.047,1.127.047a12.836,12.836,0,0,0,4.8-.923l-2.5-2.276a10.031,10.031,0,0,1-2.3.264l-.217,0H18.1l-.01-.01L14.433,315.9a4.085,4.085,0,0,0-5.777,0l-6.44,6.44a4.09,4.09,0,0,0,0,5.777L4.9,330.8a8.9,8.9,0,0,0,3.527,1.947,17.123,17.123,0,0,0,5.071.732,21.19,21.19,0,0,0,4.253-.443,24.485,24.485,0,0,0,4.738-1.5A30.565,30.565,0,0,0,29.431,327.309Z" transform="translate(-1.021 -292.705)"/>
    <path id="Trazado_18" data-name="Trazado 18" class="cls-1" d="M315.923,14.413l3.672,3.673V18.1a9.9,9.9,0,0,1-.756,4.043l2.274,2.067a12.9,12.9,0,0,0,1.372-7.02,1.085,1.085,0,0,0-.313-.677L318,12.338a1.152,1.152,0,0,1,0-1.627l6.44-6.44a1.151,1.151,0,0,1,1.627,0l2.683,2.683c1.142,1.142,2.134,4.462,1.721,8.364a23.792,23.792,0,0,1-5.523,12.374l2.174,1.976a31.641,31.641,0,0,0,3.837-5.906,24.09,24.09,0,0,0,2.43-8.136,18.591,18.591,0,0,0-.4-6.443,12.46,12.46,0,0,0-.858-2.394,7.071,7.071,0,0,0-1.31-1.911L328.14,2.2a4.085,4.085,0,0,0-5.777,0l-6.44,6.44A4.09,4.09,0,0,0,315.923,14.413Z" transform="translate(-292.726 -1)"/>
  </g>
</svg>
