<svg id="Grupo_68" data-name="Grupo 68" xmlns="http://www.w3.org/2000/svg" width="36.955" height="36.957" viewBox="0 0 36.955 36.957">
  <defs>
    <style>
      .cls-1 {
        fill: #fff;
      }
    </style>
  </defs>
  <path id="Trazado_14" data-name="Trazado 14" class="cls-1" d="M22.434,22.221c-.066.062-.132.127-.194.194a7.63,7.63,0,0,1-1.691,1.234,8.89,8.89,0,0,1-4.357,1.123l-.2,0-3.308-3.308a3.722,3.722,0,0,0-5.263,0L1.608,27.279a3.726,3.726,0,0,0,0,5.263l2.423,2.423a8.071,8.071,0,0,0,3.2,1.766,15.5,15.5,0,0,0,4.59.663,19.177,19.177,0,0,0,3.848-.4,22.148,22.148,0,0,0,4.286-1.36,29.948,29.948,0,0,0,9.23-6.468,30.86,30.86,0,0,0,5.927-8.06,21.789,21.789,0,0,0,2.2-7.359,16.824,16.824,0,0,0-.359-5.831,11.285,11.285,0,0,0-.777-2.168,6.418,6.418,0,0,0-1.189-1.735L32.561,1.59a3.722,3.722,0,0,0-5.263,0L21.481,7.407a3.726,3.726,0,0,0,0,5.263l3.308,3.308a8.9,8.9,0,0,1-1,4.329A7.831,7.831,0,0,1,22.434,22.221Zm.966-12.9,5.817-5.817a1.008,1.008,0,0,1,1.425,0l2.423,2.423c1.755,1.755,4.3,11.217-5.8,21.315-5.807,5.807-11.4,7.434-15.445,7.434-2.986,0-5.124-.888-5.87-1.634L3.527,30.623a1.008,1.008,0,0,1,0-1.425l5.817-5.816a1.008,1.008,0,0,1,1.425,0l3.77,3.77a1.011,1.011,0,0,0,.631.292q.524.043,1.021.042a11.449,11.449,0,0,0,8.037-3.224c.017-.018.034-.035.052-.052a11.506,11.506,0,0,0,3.182-9.058,1.011,1.011,0,0,0-.292-.631l-3.77-3.77A1.008,1.008,0,0,1,23.4,9.325Z" transform="translate(-0.488 -0.468)"/>
  <path id="Trazado_15" data-name="Trazado 15" class="cls-1" d="M11.352,36.957a15.529,15.529,0,0,1-4.6-.664,8.1,8.1,0,0,1-3.211-1.774L1.118,32.1a3.758,3.758,0,0,1,0-5.308l5.817-5.817a3.753,3.753,0,0,1,5.308,0l3.3,3.3.182,0a8.859,8.859,0,0,0,4.342-1.119,7.565,7.565,0,0,0,1.684-1.228c.063-.067.129-.133.2-.2a7.759,7.759,0,0,0,1.347-1.906,8.872,8.872,0,0,0,1-4.3l-3.3-3.3a3.757,3.757,0,0,1,0-5.308L26.807,1.1a3.753,3.753,0,0,1,5.308,0l2.423,2.423a6.449,6.449,0,0,1,1.195,1.743,11.307,11.307,0,0,1,.779,2.174,16.853,16.853,0,0,1,.36,5.842,21.821,21.821,0,0,1-2.2,7.37,30.89,30.89,0,0,1-5.933,8.068,29.979,29.979,0,0,1-9.24,6.475,22.18,22.18,0,0,1-4.292,1.362A19.213,19.213,0,0,1,11.352,36.957ZM9.589,19.936a3.666,3.666,0,0,0-2.609,1.081L1.163,26.833a3.694,3.694,0,0,0,0,5.218l2.423,2.423a8.04,8.04,0,0,0,3.185,1.758,15.466,15.466,0,0,0,4.581.661,19.14,19.14,0,0,0,3.842-.4,22.115,22.115,0,0,0,4.28-1.358,29.918,29.918,0,0,0,9.22-6.461,30.827,30.827,0,0,0,5.921-8.051,21.759,21.759,0,0,0,2.195-7.349,16.792,16.792,0,0,0-.358-5.819,11.254,11.254,0,0,0-.775-2.162,6.387,6.387,0,0,0-1.183-1.726L32.07,1.144a3.69,3.69,0,0,0-5.218,0L21.036,6.961a3.694,3.694,0,0,0,0,5.218L24.353,15.5v.013a8.937,8.937,0,0,1-1.005,4.345,7.825,7.825,0,0,1-1.36,1.923c-.066.062-.131.126-.193.193a7.635,7.635,0,0,1-1.7,1.24,8.922,8.922,0,0,1-4.373,1.127l-.2,0h-.013l-.009-.009L12.2,21.017A3.665,3.665,0,0,0,9.589,19.936Zm1.763,14.308c-2.919,0-5.1-.852-5.892-1.643L3.037,30.177a1.041,1.041,0,0,1,0-1.47l5.817-5.816a1.039,1.039,0,0,1,1.47,0l3.77,3.77a.98.98,0,0,0,.612.283c.34.028.683.042,1.018.042a11.419,11.419,0,0,0,8.014-3.214c.017-.019.035-.036.054-.054a11.472,11.472,0,0,0,3.172-9.032.98.98,0,0,0-.283-.612L22.91,10.3a1.041,1.041,0,0,1,0-1.47l5.817-5.817a1.039,1.039,0,0,1,1.47,0l2.423,2.423c1.032,1.032,1.927,4.03,1.554,7.555-.348,3.291-1.907,8.358-7.354,13.8a27.292,27.292,0,0,1-8.395,5.9A17.869,17.869,0,0,1,11.352,34.244ZM9.589,22.65a.97.97,0,0,0-.69.286L3.082,28.752a.977.977,0,0,0,0,1.38L5.5,32.556c.782.783,2.946,1.625,5.847,1.625A17.8,17.8,0,0,0,18.4,32.644a27.231,27.231,0,0,0,8.375-5.888c5.434-5.434,6.988-10.486,7.336-13.767.416-3.931-.721-6.689-1.536-7.5L30.152,3.063a.976.976,0,0,0-1.38,0L22.955,8.879a.977.977,0,0,0,0,1.38l3.77,3.77a1.044,1.044,0,0,1,.3.651,11.54,11.54,0,0,1-3.192,9.084c-.017.016-.034.033-.05.05a11.488,11.488,0,0,1-8.061,3.234c-.337,0-.681-.014-1.023-.043a1.044,1.044,0,0,1-.651-.3l-3.77-3.77A.969.969,0,0,0,9.589,22.65Z" transform="translate(-0.021 0)"/>
</svg>
