<svg xmlns="http://www.w3.org/2000/svg" width="16" height="16" viewBox="0 0 16 16">
  <defs>
    <style>
      .cls-1 {
        fill: #fff;
      }
    </style>
  </defs>
  <g id="Grupo_12" data-name="Grupo 12" transform="translate(-178.147 -178.147)">
    <path id="Trazado_10" data-name="Trazado 10" class="cls-1" d="M179.078,194.133a1.478,1.478,0,0,0,2.091,0L186.6,188.7l5.436,5.436a1.479,1.479,0,0,0,2.091-2.091l-5.436-5.436,5.435-5.436a1.479,1.479,0,1,0-2.091-2.091l-5.436,5.436-5.435-5.436a1.479,1.479,0,0,0-2.091,2.091l5.436,5.436-5.436,5.436A1.479,1.479,0,0,0,179.078,194.133Z" transform="translate(-0.458 -0.46)"/>
    <path id="Trazado_11" data-name="Trazado 11" class="cls-1" d="M192.633,194.147a1.5,1.5,0,0,1-1.071-.444l-5.415-5.415-5.415,5.415a1.514,1.514,0,1,1-2.141-2.141l5.415-5.415-5.415-5.415a1.514,1.514,0,0,1,2.141-2.141l5.415,5.415,5.415-5.415a1.514,1.514,0,0,1,2.141,2.141l-5.415,5.415,5.415,5.415a1.514,1.514,0,0,1-1.071,2.585Zm-6.486-5.956,5.464,5.464a1.445,1.445,0,1,0,2.044-2.044l-5.464-5.464,5.464-5.464a1.445,1.445,0,1,0-2.044-2.044l-5.464,5.464-5.464-5.464a1.445,1.445,0,0,0-2.044,2.044l5.464,5.464-5.464,5.464a1.445,1.445,0,1,0,2.044,2.044Z"/>
  </g>
</svg>
