<svg xmlns="http://www.w3.org/2000/svg" width="24.456" height="33.223" viewBox="0 0 24.456 33.223">
  <defs>
    <style>
      .cls-1 {
        fill: #fff;
      }
    </style>
  </defs>
  <g id="Grupo_72" data-name="Grupo 72" transform="translate(-2.678)">
    <g id="Grupo_17" data-name="Grupo 17" transform="translate(2.678)">
      <path id="Trazado_21" data-name="Trazado 21" class="cls-1" d="M5.545,8.118H8.429A2.369,2.369,0,0,0,10.8,5.751V2.867A2.369,2.369,0,0,0,8.429.5H5.545A2.369,2.369,0,0,0,3.178,2.867V5.751A2.369,2.369,0,0,0,5.545,8.118ZM4.922,2.867a.623.623,0,0,1,.623-.623H8.429a.623.623,0,0,1,.623.623V5.751a.623.623,0,0,1-.623.623H5.545a.623.623,0,0,1-.623-.623Z" transform="translate(-3.158 -0.48)"/>
      <path id="Trazado_22" data-name="Trazado 22" class="cls-1" d="M7.95,7.659H5.065A2.39,2.39,0,0,1,2.678,5.272V2.387A2.39,2.39,0,0,1,5.065,0H7.95a2.39,2.39,0,0,1,2.387,2.387V5.272A2.39,2.39,0,0,1,7.95,7.659ZM5.065.041A2.349,2.349,0,0,0,2.719,2.387V5.272A2.349,2.349,0,0,0,5.065,7.618H7.95A2.349,2.349,0,0,0,10.3,5.272V2.387A2.349,2.349,0,0,0,7.95.041ZM7.95,5.915H5.065a.644.644,0,0,1-.643-.643V2.387a.644.644,0,0,1,.643-.643H7.95a.644.644,0,0,1,.643.643V5.272A.644.644,0,0,1,7.95,5.915ZM5.065,1.784a.6.6,0,0,0-.6.6V5.272a.6.6,0,0,0,.6.6H7.95a.6.6,0,0,0,.6-.6V2.387a.6.6,0,0,0-.6-.6Z" transform="translate(-2.678)"/>
    </g>
    <g id="Grupo_18" data-name="Grupo 18" transform="translate(11.077)">
      <path id="Trazado_23" data-name="Trazado 23" class="cls-1" d="M211.889,8.118h2.885a2.369,2.369,0,0,0,2.367-2.367V2.867A2.369,2.369,0,0,0,214.773.5h-2.885a2.369,2.369,0,0,0-2.367,2.367V5.751A2.369,2.369,0,0,0,211.889,8.118Zm-.623-5.251a.623.623,0,0,1,.623-.623h2.885a.623.623,0,0,1,.623.623V5.751a.623.623,0,0,1-.623.623h-2.885a.623.623,0,0,1-.623-.623V2.867Z" transform="translate(-209.502 -0.48)"/>
      <path id="Trazado_24" data-name="Trazado 24" class="cls-1" d="M214.293,7.659h-2.885a2.39,2.39,0,0,1-2.387-2.387V2.387A2.39,2.39,0,0,1,211.408,0h2.885a2.39,2.39,0,0,1,2.387,2.387V5.272A2.39,2.39,0,0,1,214.293,7.659ZM211.408.041a2.349,2.349,0,0,0-2.346,2.346V5.272a2.349,2.349,0,0,0,2.346,2.346h2.885a2.349,2.349,0,0,0,2.346-2.346V2.387A2.349,2.349,0,0,0,214.293.041Zm2.885,5.874h-2.885a.644.644,0,0,1-.643-.643V2.387a.644.644,0,0,1,.643-.643h2.885a.644.644,0,0,1,.643.643V5.272A.644.644,0,0,1,214.293,5.915Zm-2.885-4.13a.6.6,0,0,0-.6.6V5.272a.6.6,0,0,0,.6.6h2.885a.6.6,0,0,0,.6-.6V2.387a.6.6,0,0,0-.6-.6Z" transform="translate(-209.021)"/>
    </g>
    <g id="Grupo_19" data-name="Grupo 19" transform="translate(19.476)">
      <path id="Trazado_25" data-name="Trazado 25" class="cls-1" d="M421.116.5h-2.885a2.369,2.369,0,0,0-2.367,2.367V5.751a2.369,2.369,0,0,0,2.367,2.367h2.885a2.369,2.369,0,0,0,2.367-2.367V2.867A2.369,2.369,0,0,0,421.116.5Zm.623,5.251a.623.623,0,0,1-.623.623h-2.885a.623.623,0,0,1-.623-.623V2.867a.623.623,0,0,1,.623-.623h2.885a.623.623,0,0,1,.623.623Z" transform="translate(-415.845 -0.48)"/>
      <path id="Trazado_26" data-name="Trazado 26" class="cls-1" d="M420.637,7.659h-2.885a2.39,2.39,0,0,1-2.387-2.387V2.387A2.39,2.39,0,0,1,417.752,0h2.885a2.39,2.39,0,0,1,2.387,2.387V5.272A2.39,2.39,0,0,1,420.637,7.659ZM417.752.041a2.349,2.349,0,0,0-2.346,2.346V5.272a2.349,2.349,0,0,0,2.346,2.346h2.885a2.349,2.349,0,0,0,2.346-2.346V2.387A2.349,2.349,0,0,0,420.637.041Zm2.885,5.874h-2.885a.644.644,0,0,1-.643-.643V2.387a.644.644,0,0,1,.643-.643h2.885a.644.644,0,0,1,.643.643V5.272A.644.644,0,0,1,420.637,5.915Zm-2.885-4.13a.6.6,0,0,0-.6.6V5.272a.6.6,0,0,0,.6.6h2.885a.6.6,0,0,0,.6-.6V2.387a.6.6,0,0,0-.6-.6Z" transform="translate(-415.365)"/>
    </g>
    <g id="Grupo_20" data-name="Grupo 20" transform="translate(2.678 8.508)">
      <path id="Trazado_27" data-name="Trazado 27" class="cls-1" d="M3.178,214.771a2.369,2.369,0,0,0,2.367,2.367H8.429a2.369,2.369,0,0,0,2.367-2.367v-2.885a2.369,2.369,0,0,0-2.367-2.367H5.545a2.369,2.369,0,0,0-2.367,2.367Zm1.744-2.885a.623.623,0,0,1,.623-.623H8.429a.623.623,0,0,1,.623.623v2.885a.623.623,0,0,1-.623.623H5.545a.623.623,0,0,1-.623-.623Z" transform="translate(-3.158 -209.5)"/>
      <path id="Trazado_28" data-name="Trazado 28" class="cls-1" d="M7.95,216.679H5.065a2.39,2.39,0,0,1-2.387-2.387v-2.885a2.39,2.39,0,0,1,2.387-2.387H7.95a2.39,2.39,0,0,1,2.387,2.387v2.885A2.39,2.39,0,0,1,7.95,216.679Zm-2.885-7.618a2.349,2.349,0,0,0-2.346,2.346v2.885a2.349,2.349,0,0,0,2.346,2.346H7.95a2.349,2.349,0,0,0,2.346-2.346v-2.885a2.349,2.349,0,0,0-2.346-2.346Zm2.885,5.874H5.065a.644.644,0,0,1-.643-.643v-2.885a.644.644,0,0,1,.643-.643H7.95a.644.644,0,0,1,.643.643v2.885A.644.644,0,0,1,7.95,214.935ZM5.065,210.8a.6.6,0,0,0-.6.6v2.885a.6.6,0,0,0,.6.6H7.95a.6.6,0,0,0,.6-.6v-2.885a.6.6,0,0,0-.6-.6Z" transform="translate(-2.678 -209.02)"/>
    </g>
    <g id="Grupo_21" data-name="Grupo 21" transform="translate(11.077 8.508)">
      <path id="Trazado_29" data-name="Trazado 29" class="cls-1" d="M209.521,214.771a2.369,2.369,0,0,0,2.367,2.367h2.885a2.369,2.369,0,0,0,2.367-2.367v-2.885a2.369,2.369,0,0,0-2.367-2.367h-2.885a2.369,2.369,0,0,0-2.367,2.367v2.885Zm1.744-2.885a.623.623,0,0,1,.623-.623h2.885a.623.623,0,0,1,.623.623v2.885a.623.623,0,0,1-.623.623h-2.885a.623.623,0,0,1-.623-.623v-2.885Z" transform="translate(-209.501 -209.5)"/>
      <path id="Trazado_30" data-name="Trazado 30" class="cls-1" d="M214.293,216.679h-2.885a2.39,2.39,0,0,1-2.387-2.387v-2.885a2.39,2.39,0,0,1,2.387-2.387h2.885a2.39,2.39,0,0,1,2.387,2.387v2.885A2.39,2.39,0,0,1,214.293,216.679Zm-2.885-7.618a2.349,2.349,0,0,0-2.346,2.346v2.885a2.349,2.349,0,0,0,2.346,2.346h2.885a2.349,2.349,0,0,0,2.346-2.346v-2.885a2.349,2.349,0,0,0-2.346-2.346Zm2.885,5.874h-2.885a.644.644,0,0,1-.643-.643v-2.885a.644.644,0,0,1,.643-.643h2.885a.644.644,0,0,1,.643.643v2.885A.644.644,0,0,1,214.293,214.935Zm-2.885-4.13a.6.6,0,0,0-.6.6v2.885a.6.6,0,0,0,.6.6h2.885a.6.6,0,0,0,.6-.6v-2.885a.6.6,0,0,0-.6-.6Z" transform="translate(-209.021 -209.02)"/>
    </g>
    <g id="Grupo_22" data-name="Grupo 22" transform="translate(19.476 8.508)">
      <path id="Trazado_31" data-name="Trazado 31" class="cls-1" d="M421.116,209.521h-2.885a2.369,2.369,0,0,0-2.367,2.367v2.885a2.369,2.369,0,0,0,2.367,2.367h2.885a2.369,2.369,0,0,0,2.367-2.367v-2.885A2.369,2.369,0,0,0,421.116,209.521Zm.623,5.251a.623.623,0,0,1-.623.623h-2.885a.623.623,0,0,1-.623-.623v-2.885a.623.623,0,0,1,.623-.623h2.885a.623.623,0,0,1,.623.623Z" transform="translate(-415.845 -209.501)"/>
      <path id="Trazado_32" data-name="Trazado 32" class="cls-1" d="M420.637,216.679h-2.885a2.39,2.39,0,0,1-2.387-2.387v-2.885a2.39,2.39,0,0,1,2.387-2.387h2.885a2.39,2.39,0,0,1,2.387,2.387v2.885A2.39,2.39,0,0,1,420.637,216.679Zm-2.885-7.618a2.349,2.349,0,0,0-2.346,2.346v2.885a2.349,2.349,0,0,0,2.346,2.346h2.885a2.349,2.349,0,0,0,2.346-2.346v-2.885a2.349,2.349,0,0,0-2.346-2.346Zm2.885,5.874h-2.885a.644.644,0,0,1-.643-.643v-2.885a.644.644,0,0,1,.643-.643h2.885a.644.644,0,0,1,.643.643v2.885A.644.644,0,0,1,420.637,214.935Zm-2.885-4.13a.6.6,0,0,0-.6.6v2.885a.6.6,0,0,0,.6.6h2.885a.6.6,0,0,0,.6-.6v-2.885a.6.6,0,0,0-.6-.6Z" transform="translate(-415.365 -209.02)"/>
    </g>
    <g id="Grupo_23" data-name="Grupo 23" transform="translate(2.678 17.016)">
      <path id="Trazado_33" data-name="Trazado 33" class="cls-1" d="M5.545,426.16H8.429a2.369,2.369,0,0,0,2.367-2.367v-2.885a2.369,2.369,0,0,0-2.367-2.367H5.545a2.369,2.369,0,0,0-2.367,2.367v2.885A2.369,2.369,0,0,0,5.545,426.16Zm-.623-5.251a.623.623,0,0,1,.623-.623H8.429a.623.623,0,0,1,.623.623v2.885a.623.623,0,0,1-.623.623H5.545a.623.623,0,0,1-.623-.623Z" transform="translate(-3.158 -418.522)"/>
      <path id="Trazado_34" data-name="Trazado 34" class="cls-1" d="M7.95,425.7H5.065a2.39,2.39,0,0,1-2.387-2.387v-2.885a2.39,2.39,0,0,1,2.387-2.387H7.95a2.39,2.39,0,0,1,2.387,2.387v2.885A2.39,2.39,0,0,1,7.95,425.7Zm-2.885-7.618a2.349,2.349,0,0,0-2.346,2.346v2.885a2.349,2.349,0,0,0,2.346,2.346H7.95a2.349,2.349,0,0,0,2.346-2.346v-2.885a2.349,2.349,0,0,0-2.346-2.346Zm2.885,5.874H5.065a.644.644,0,0,1-.643-.643v-2.885a.644.644,0,0,1,.643-.643H7.95a.644.644,0,0,1,.643.643v2.885A.644.644,0,0,1,7.95,423.957Zm-2.885-4.13a.6.6,0,0,0-.6.6v2.885a.6.6,0,0,0,.6.6H7.95a.6.6,0,0,0,.6-.6v-2.885a.6.6,0,0,0-.6-.6Z" transform="translate(-2.678 -418.042)"/>
    </g>
    <g id="Grupo_24" data-name="Grupo 24" transform="translate(11.077 17.016)">
      <path id="Trazado_35" data-name="Trazado 35" class="cls-1" d="M209.521,423.794a2.369,2.369,0,0,0,2.367,2.367h2.885a2.369,2.369,0,0,0,2.367-2.367V420.91a2.369,2.369,0,0,0-2.367-2.367h-2.885a2.369,2.369,0,0,0-2.367,2.367v2.885Zm1.744-2.885a.623.623,0,0,1,.623-.623h2.885a.623.623,0,0,1,.623.623v2.885a.623.623,0,0,1-.623.623h-2.885a.623.623,0,0,1-.623-.623V420.91Z" transform="translate(-209.501 -418.523)"/>
      <path id="Trazado_36" data-name="Trazado 36" class="cls-1" d="M214.293,425.7h-2.885a2.39,2.39,0,0,1-2.387-2.387v-2.885a2.39,2.39,0,0,1,2.387-2.387h2.885a2.39,2.39,0,0,1,2.387,2.387v2.885A2.39,2.39,0,0,1,214.293,425.7Zm-2.885-7.618a2.349,2.349,0,0,0-2.346,2.346v2.885a2.349,2.349,0,0,0,2.346,2.346h2.885a2.349,2.349,0,0,0,2.346-2.346v-2.885a2.349,2.349,0,0,0-2.346-2.346Zm2.885,5.874h-2.885a.644.644,0,0,1-.643-.643v-2.885a.644.644,0,0,1,.643-.643h2.885a.644.644,0,0,1,.643.643v2.885A.644.644,0,0,1,214.293,423.957Zm-2.885-4.13a.6.6,0,0,0-.6.6v2.885a.6.6,0,0,0,.6.6h2.885a.6.6,0,0,0,.6-.6v-2.885a.6.6,0,0,0-.6-.6Z" transform="translate(-209.021 -418.042)"/>
    </g>
    <g id="Grupo_25" data-name="Grupo 25" transform="translate(11.077 25.564)">
      <path id="Trazado_37" data-name="Trazado 37" class="cls-1" d="M209.521,633.794a2.369,2.369,0,0,0,2.367,2.366h2.885a2.369,2.369,0,0,0,2.367-2.366V630.91a2.369,2.369,0,0,0-2.367-2.367h-2.885a2.369,2.369,0,0,0-2.367,2.367v2.885Zm1.744-2.885a.623.623,0,0,1,.623-.623h2.885a.623.623,0,0,1,.623.623v2.885a.623.623,0,0,1-.623.623h-2.885a.623.623,0,0,1-.623-.623V630.91Z" transform="translate(-209.501 -628.523)"/>
      <path id="Trazado_38" data-name="Trazado 38" class="cls-1" d="M214.293,635.7h-2.885a2.39,2.39,0,0,1-2.387-2.387v-2.885a2.39,2.39,0,0,1,2.387-2.387h2.885a2.39,2.39,0,0,1,2.387,2.387v2.885A2.39,2.39,0,0,1,214.293,635.7Zm-2.885-7.618a2.349,2.349,0,0,0-2.346,2.346v2.885a2.349,2.349,0,0,0,2.346,2.346h2.885a2.349,2.349,0,0,0,2.346-2.346v-2.885a2.349,2.349,0,0,0-2.346-2.346Zm2.885,5.874h-2.885a.644.644,0,0,1-.643-.643v-2.885a.644.644,0,0,1,.643-.643h2.885a.644.644,0,0,1,.643.643v2.885A.644.644,0,0,1,214.293,633.957Zm-2.885-4.13a.6.6,0,0,0-.6.6v2.885a.6.6,0,0,0,.6.6h2.885a.6.6,0,0,0,.6-.6v-2.885a.6.6,0,0,0-.6-.6Z" transform="translate(-209.021 -628.042)"/>
    </g>
    <g id="Grupo_26" data-name="Grupo 26" transform="translate(19.476 17.016)">
      <path id="Trazado_39" data-name="Trazado 39" class="cls-1" d="M421.116,418.543h-2.885a2.369,2.369,0,0,0-2.367,2.367v2.885a2.369,2.369,0,0,0,2.367,2.367h2.885a2.369,2.369,0,0,0,2.367-2.367V420.91A2.369,2.369,0,0,0,421.116,418.543Zm.623,5.251a.623.623,0,0,1-.623.623h-2.885a.623.623,0,0,1-.623-.623V420.91a.623.623,0,0,1,.623-.623h2.885a.623.623,0,0,1,.623.623Z" transform="translate(-415.845 -418.523)"/>
      <path id="Trazado_40" data-name="Trazado 40" class="cls-1" d="M420.637,425.7h-2.885a2.39,2.39,0,0,1-2.387-2.387v-2.885a2.39,2.39,0,0,1,2.387-2.387h2.885a2.39,2.39,0,0,1,2.387,2.387v2.885A2.39,2.39,0,0,1,420.637,425.7Zm-2.885-7.618a2.349,2.349,0,0,0-2.346,2.346v2.885a2.349,2.349,0,0,0,2.346,2.346h2.885a2.349,2.349,0,0,0,2.346-2.346v-2.885a2.349,2.349,0,0,0-2.346-2.346Zm2.885,5.874h-2.885a.644.644,0,0,1-.643-.643v-2.885a.644.644,0,0,1,.643-.643h2.885a.644.644,0,0,1,.643.643v2.885A.644.644,0,0,1,420.637,423.957Zm-2.885-4.13a.6.6,0,0,0-.6.6v2.885a.6.6,0,0,0,.6.6h2.885a.6.6,0,0,0,.6-.6v-2.885a.6.6,0,0,0-.6-.6Z" transform="translate(-415.365 -418.042)"/>
    </g>
  </g>
</svg>
