<?xml version="1.0" encoding="utf-8"?>
<!-- Generator: Adobe Illustrator 16.0.0, SVG Export Plug-In . SVG Version: 6.00 Build 0)  -->
<!DOCTYPE svg PUBLIC "-//W3C//DTD SVG 1.1//EN" "http://www.w3.org/Graphics/SVG/1.1/DTD/svg11.dtd">
<svg version="1.1" id="Capa_1" xmlns="http://www.w3.org/2000/svg" xmlns:xlink="http://www.w3.org/1999/xlink" x="0px" y="0px"
	 width="1498.234px" height="1080px" viewBox="0 0 1498.234 1080" enable-background="new 0 0 1498.234 1080" xml:space="preserve">
<g opacity="0.2">
	<g>
		<defs>
			<rect id="SVGID_1_" x="-421.766" y="-2" width="1920" height="1080"/>
		</defs>
		<clipPath id="SVGID_2_">
			<use xlink:href="#SVGID_1_"  overflow="visible"/>
		</clipPath>
		<g clip-path="url(#SVGID_2_)">
			<g>
				<defs>
					<rect id="SVGID_3_" x="-421.766" y="-2" width="1920" height="1080"/>
				</defs>
				<defs>
					<rect id="SVGID_4_" x="-421.766" y="-2" width="1920" height="1080"/>
				</defs>
				<clipPath id="SVGID_5_">
					<use xlink:href="#SVGID_3_"  overflow="visible"/>
				</clipPath>
				<clipPath id="SVGID_6_" clip-path="url(#SVGID_5_)">
					<use xlink:href="#SVGID_4_"  overflow="visible"/>
				</clipPath>
				<g clip-path="url(#SVGID_6_)">
					<g opacity="0.25">
						<g>
							<defs>
								<rect id="SVGID_7_" x="-421.766" y="-248.47" width="2395.16" height="1327.241"/>
							</defs>
							<clipPath id="SVGID_8_">
								<use xlink:href="#SVGID_7_"  overflow="visible"/>
							</clipPath>
						</g>
					</g>
				</g>
			</g>
			<g>
				<defs>
					<rect id="SVGID_9_" x="-421.766" y="-2" width="1920" height="1080"/>
				</defs>
				<clipPath id="SVGID_10_">
					<use xlink:href="#SVGID_9_"  overflow="visible"/>
				</clipPath>
				<g clip-path="url(#SVGID_10_)">
					<g>
						<defs>
							<rect id="SVGID_11_" x="-421.766" y="-2" width="1920" height="1080"/>
						</defs>
						<clipPath id="SVGID_12_">
							<use xlink:href="#SVGID_11_"  overflow="visible"/>
						</clipPath>
						<g clip-path="url(#SVGID_12_)">
							<g>
								<g opacity="0.2">
									<defs>
										<rect id="SVGID_13_" x="1229.296" y="-281.78" opacity="0.2" width="2228.938" height="1403.245"/>
									</defs>
									<clipPath id="SVGID_14_">
										<use xlink:href="#SVGID_13_"  overflow="visible"/>
									</clipPath>
									<g clip-path="url(#SVGID_14_)">
										<g>
											<defs>
												<rect id="SVGID_15_" x="1538.234" y="-2" width="1920" height="1080"/>
											</defs>
											<clipPath id="SVGID_16_">
												<use xlink:href="#SVGID_15_"  overflow="visible"/>
											</clipPath>
											<path clip-path="url(#SVGID_16_)" fill="none" stroke="#5341FF" stroke-miterlimit="10" d="M1235.341,366.909
												c2.703,14.421,6.422,28.37,10.888,41.889c0.308,1.156,0.528,2.337,0.907,3.393l-0.053,0.07
												c3.053,8.79,6.198,17.486,9.458,26.172c0.841,2.161,1.689,4.277,2.519,6.441c2.035,5.325,4.11,10.614,6.24,15.894
												c1.646,4.05,3.334,8.064,5.002,12.098c1.344,3.202,2.707,6.429,4.065,9.619c2.244,5.249,4.562,10.46,6.921,15.663
												c0.779,1.771,1.574,3.555,2.404,5.325c2.854,6.252,5.771,12.481,8.722,18.662c0.201,0.435,0.423,0.864,0.63,1.297
												c202.642,419.696,667.633,669.191,1147.646,579.199l0.01-0.001l0.034-0.007
												c236.623-44.361,439.772-164.438,589.526-330.304c0.775-0.627-243.941,13.403-622.892-197.824
												C2109.058,408.242,1770.044,36.293,1654.643,4.662c-50.814-17.524-106.676-22.579-163.264-11.97
												C1317.32,25.325,1202.713,192.874,1235.341,366.909z"/>
										</g>
									</g>
								</g>
							</g>
						</g>
						
							<path opacity="0.48" clip-path="url(#SVGID_12_)" fill="none" stroke="#1E2847" stroke-miterlimit="10" enable-background="new    " d="
							M413.838,22.478c100.172,27.458,378.459,325.942,641.67,496.413c177.102-245.244,324.144-606.595,409.172-687.382
							c-2.737,2.461-5.413,4.973-7.997,7.64C1319.021-37.271,1150.811,43.894,972.885,77.322
							c-177.938,33.286-364.129,18.564-537.215-46.758C428.51,27.277,421.221,24.626,413.838,22.478z"/>
						
							<path opacity="0.48" clip-path="url(#SVGID_12_)" fill="none" stroke="#1E2847" stroke-miterlimit="10" enable-background="new    " d="
							M1005.447,583.98C743.699,900.024,523.179,971.488,524.055,971.779c188.883,94.912,409.102,131.172,632.891,89.217
							l0.041-0.008c292.549-54.847,531.277-231.801,673.44-468.285c0.007-0.063,0.034-0.115,0.085-0.178
							c3.511-5.854,6.972-11.743,10.367-17.677c0.528-0.929,1.058-1.883,1.593-2.823c2.979-5.219,5.892-10.472,8.772-15.732
							c1.041-1.909,2.066-3.807,3.079-5.723c2.392-4.459,4.759-8.918,7.104-13.42c1.749-3.38,3.436-6.785,5.147-10.2
							c1.589-3.126,3.175-6.238,4.729-9.382c72.271-147.655,108.738-314.103,100.419-486.134
							c-0.841-10.601-2.191-21.253-4.201-31.975c-30.858-164.601-189.313-273.041-353.905-242.184
							c-53.539,10.038-101.059,33.632-139.816,66.483C1382.901-108.82,1211.473,335.219,1005.447,583.98z"/>
						
							<path opacity="0.48" clip-path="url(#SVGID_12_)" fill="none" stroke="#1E2847" stroke-miterlimit="10" enable-background="new    " d="
							M17.262,365.089c2.557,13.639,6.073,26.833,10.298,39.619c0.291,1.094,0.5,2.21,0.857,3.209l-0.049,0.066
							c2.888,8.314,5.862,16.539,8.945,24.753c0.796,2.044,1.598,4.046,2.381,6.092c1.926,5.037,3.889,10.039,5.902,15.033
							c1.559,3.83,3.152,7.626,4.731,11.439c1.271,3.03,2.56,6.082,3.846,9.1c2.122,4.964,4.313,9.892,6.546,14.813
							c0.736,1.676,1.489,3.362,2.273,5.037c2.699,5.914,5.459,11.805,8.249,17.651c0.191,0.409,0.4,0.816,0.596,1.226
							c191.657,396.948,631.445,632.919,1085.441,547.805l0.01-0.002l0.031-0.006c223.797-41.957,415.938-155.523,557.573-312.399
							c0.731-0.595-230.721,12.678-589.129-187.103C843.621,404.183,522.984,52.394,413.838,22.478
							C365.778,5.903,312.945,1.124,259.424,11.156C94.8,42.021-13.597,200.488,17.262,365.089z"/>
					</g>
				</g>
			</g>
		</g>
	</g>
</g>
</svg>
