<?xml version="1.0" standalone="no"?>
<!DOCTYPE svg PUBLIC "-//W3C//DTD SVG 20010904//EN"
 "http://www.w3.org/TR/2001/REC-SVG-20010904/DTD/svg10.dtd">
<svg version="1.0" xmlns="http://www.w3.org/2000/svg"
 width="498.000000pt" height="222.000000pt" viewBox="0 0 498.000000 222.000000"
 preserveAspectRatio="xMidYMid meet">

<g transform="translate(0.000000,222.000000) scale(0.100000,-0.100000)"
fill="#000000" stroke="none">
<path d="M308 1176 l-3 -336 203 0 202 0 0 45 0 45 -155 0 c-117 0 -155 3
-155 13 0 6 -1 136 -3 287 l-2 275 -42 3 -42 3 -3 -335z"/>
<path d="M2770 1175 l0 -335 45 0 45 0 0 335 0 335 -45 0 -45 0 0 -335z"/>
<path d="M3020 1176 l0 -336 45 0 45 0 0 109 0 108 103 5 c56 3 118 12 137 20
160 68 167 324 12 400 -40 19 -67 23 -194 26 l-148 4 0 -336z m265 234 c81
-18 124 -105 89 -176 -30 -60 -59 -75 -152 -80 -45 -2 -88 -1 -97 2 -12 5 -15
28 -15 128 0 68 3 126 7 129 9 10 121 8 168 -3z"/>
<path d="M935 1343 c-101 -41 -155 -114 -163 -222 -8 -119 40 -211 136 -258
104 -51 224 -37 303 34 33 30 69 80 69 95 0 2 -21 2 -46 2 -35 -1 -49 -7 -61
-24 -9 -12 -34 -31 -57 -41 -107 -49 -236 10 -253 116 l-6 35 223 0 223 0 -7
53 c-14 108 -75 184 -170 212 -64 19 -140 18 -191 -2z m184 -78 c37 -19 81
-71 81 -96 0 -18 -9 -19 -170 -19 -93 0 -170 3 -170 6 0 26 50 87 84 104 49
24 134 27 175 5z"/>
<path d="M1553 1339 c-194 -74 -206 -379 -19 -465 101 -46 213 -41 285 14 l34
25 -5 -52 c-6 -63 -30 -99 -83 -125 -78 -39 -222 -16 -247 38 -9 22 -18 26
-54 26 l-42 0 10 -41 c19 -74 103 -118 228 -119 128 0 206 35 251 113 24 41
24 47 27 320 l4 277 -46 0 c-45 0 -46 -1 -46 -32 l0 -31 -23 21 c-56 52 -181
67 -274 31z m222 -83 c93 -61 94 -226 2 -300 -82 -66 -215 -39 -264 54 -60
113 4 249 126 270 46 8 103 -2 136 -24z"/>
<path d="M2236 1340 c-102 -40 -159 -126 -159 -240 -1 -147 90 -247 239 -266
60 -7 146 14 187 46 33 26 37 25 37 -10 0 -29 2 -30 45 -30 l45 0 -1 255 -1
255 -44 0 c-42 0 -44 -1 -44 -30 0 -36 -2 -37 -35 -6 -51 47 -182 60 -269 26z
m215 -87 c68 -39 104 -133 79 -208 -49 -150 -248 -181 -336 -53 -25 36 -29 50
-28 109 0 54 5 74 24 102 56 82 170 104 261 50z"/>
<path d="M3725 1344 c-139 -49 -206 -220 -141 -360 47 -101 125 -148 246 -148
66 -1 82 3 133 31 l57 31 0 -29 c0 -28 2 -29 45 -29 l45 0 0 255 0 255 -45 0
c-44 0 -45 -1 -45 -31 l0 -31 -30 26 c-17 14 -47 30 -68 36 -51 14 -149 11
-197 -6z m182 -75 c130 -49 152 -246 35 -324 -113 -74 -261 -17 -290 113 -20
85 26 182 98 211 34 13 122 13 157 0z"/>
<path d="M4210 1352 c0 -4 43 -113 95 -242 52 -129 95 -240 95 -247 0 -7 -15
-51 -34 -98 l-34 -85 48 0 49 0 19 53 c11 28 70 178 131 331 61 154 111 283
111 288 0 4 -20 8 -44 8 l-44 0 -49 -127 c-27 -71 -60 -158 -73 -195 -13 -38
-26 -68 -30 -68 -3 0 -17 33 -29 73 -13 39 -46 127 -74 195 l-50 122 -43 0
c-24 0 -44 -4 -44 -8z"/>
</g>
</svg>
