<svg xmlns="http://www.w3.org/2000/svg" width="24.019" height="35.35" viewBox="0 0 24.019 35.35">
  <defs>
    <style>
      .cls-1 {
        fill: #fff;
      }
    </style>
  </defs>
  <g id="Grupo_71" data-name="Grupo 71" transform="translate(-764.423 76)">
    <path id="Trazado_45" data-name="Trazado 45" class="cls-1" d="M808.938,62.282a1.5,1.5,0,0,1-1.009-.39L789.91,45.516a1.5,1.5,0,0,1,2.018-2.22l18.019,16.376a1.5,1.5,0,0,1-1.009,2.61Z" transform="translate(-23.496 -111.771)"/>
    <g id="Grupo_35" data-name="Grupo 35" transform="translate(764.423 -76)">
      <path id="Trazado_46" data-name="Trazado 46" class="cls-1" d="M852.517,187.494a6.357,6.357,0,0,0,5.859,3.883h.787a6.342,6.342,0,0,0,1.661-.22l-2.523-2.293a3.854,3.854,0,0,1-3.749-3.407l-2.536-2.305v1.865A6.32,6.32,0,0,0,852.517,187.494Z" transform="translate(-846.76 -167.603)"/>
      <path id="Trazado_47" data-name="Trazado 47" class="cls-1" d="M865.924-68.64a6.322,6.322,0,0,0-.5-2.476,6.335,6.335,0,0,0-1.362-2.021,6.335,6.335,0,0,0-2.021-1.362,6.321,6.321,0,0,0-2.476-.5h-.787a6.322,6.322,0,0,0-2.476.5,6.334,6.334,0,0,0-2.021,1.362,6.334,6.334,0,0,0-1.362,2.021,6.306,6.306,0,0,0-.475,1.906q.071.058.14.121l2.345,2.131V-68.64a3.853,3.853,0,0,1,3.849-3.849h.787a3.854,3.854,0,0,1,3.849,3.849v9.394l2.478,2.252a6.416,6.416,0,0,0,.033-.651Z" transform="translate(-847.161 75.06)"/>
      <path id="Trazado_48" data-name="Trazado 48" class="cls-1" d="M851.559-70.15a6.3,6.3,0,0,1,.475-1.906,6.334,6.334,0,0,1,1.362-2.021,6.335,6.335,0,0,1,2.021-1.362,6.322,6.322,0,0,1,2.476-.5h.787a6.321,6.321,0,0,1,2.476.5,6.335,6.335,0,0,1,2.021,1.362,6.333,6.333,0,0,1,1.362,2.021,6.322,6.322,0,0,1,.5,2.476v11a6.434,6.434,0,0,1-.033.651l.055.05a6.479,6.479,0,0,0,.038-.7v-11a6.383,6.383,0,0,0-.506-2.5,6.393,6.393,0,0,0-1.375-2.04,6.394,6.394,0,0,0-2.04-1.375,6.381,6.381,0,0,0-2.5-.506h-.787a6.382,6.382,0,0,0-2.5.506,6.4,6.4,0,0,0-2.04,1.375,6.394,6.394,0,0,0-1.375,2.04,6.368,6.368,0,0,0-.476,1.886Z" transform="translate(-846.278 76)"/>
      <path id="Trazado_49" data-name="Trazado 49" class="cls-1" d="M859.884,190.3a6.341,6.341,0,0,1-1.661.22h-.787a6.357,6.357,0,0,1-6.36-6.36V182.3l-.06-.055v1.92a6.417,6.417,0,0,0,6.42,6.42h.787a6.4,6.4,0,0,0,1.714-.232Z" transform="translate(-845.82 -166.748)"/>
      <path id="Trazado_50" data-name="Trazado 50" class="cls-1" d="M1115.382,171.551v-.771a1.255,1.255,0,0,0-2.511,0v.771a9.441,9.441,0,0,1-.574,3.255l1.97,1.79c.061-.13.12-.261.176-.394A11.874,11.874,0,0,0,1115.382,171.551Z" transform="translate(-1091.423 -154.792)"/>
      <path id="Trazado_51" data-name="Trazado 51" class="cls-1" d="M770.7,178.225a9.377,9.377,0,0,1-2.765-6.674v-.771a1.255,1.255,0,0,0-2.511,0v.771a11.94,11.94,0,0,0,10.667,11.881l.027,0v4.137h-2.958a1.255,1.255,0,0,0,0,2.511h8.426a1.255,1.255,0,0,0,0-2.511h-2.958v-4.137l.027,0a11.9,11.9,0,0,0,4.687-1.527l-1.977-1.8a9.456,9.456,0,0,1-10.667-1.883Z" transform="translate(-765.361 -154.792)"/>
      <path id="Trazado_52" data-name="Trazado 52" class="cls-1" d="M782.4,180.965a11.9,11.9,0,0,1-4.687,1.527l-.027,0v4.137h2.958a1.255,1.255,0,0,1,0,2.511h-8.426a1.255,1.255,0,0,1,0-2.511h2.958v-4.137l-.027,0a11.94,11.94,0,0,1-10.667-11.881v-.771a1.255,1.255,0,1,1,2.51,0v.771a9.448,9.448,0,0,0,13.432,8.558l-.048-.044a9.383,9.383,0,0,1-13.323-8.514v-.771a1.315,1.315,0,0,0-2.631,0v.771a12,12,0,0,0,10.694,11.938v4.023h-2.9a1.315,1.315,0,1,0,0,2.631h8.426a1.315,1.315,0,1,0,0-2.631h-2.9v-4.023a11.95,11.95,0,0,0,4.7-1.541Z" transform="translate(-764.423 -153.852)"/>
      <path id="Trazado_53" data-name="Trazado 53" class="cls-1" d="M1111.548,173.866a9.441,9.441,0,0,0,.574-3.255v-.771a1.255,1.255,0,0,1,2.511,0v.771a11.876,11.876,0,0,1-.94,4.652c-.056.133-.115.264-.176.394l.047.042c.064-.136.126-.273.185-.413a11.937,11.937,0,0,0,.944-4.675v-.771a1.315,1.315,0,0,0-2.631,0v.771a9.382,9.382,0,0,1-.562,3.212Z" transform="translate(-1090.674 -153.852)"/>
    </g>
  </g>
</svg>
