<svg xmlns="http://www.w3.org/2000/svg" width="32.34" height="32.341" viewBox="0 0 32.34 32.341">
  <defs>
    <style>
      .cls-1 {
        fill: #fff;
      }
    </style>
  </defs>
  <g id="Grupo_70" data-name="Grupo 70" transform="translate(-0.012)">
    <g id="Grupo_37" data-name="Grupo 37" transform="translate(0.012)">
      <path id="Trazado_54" data-name="Trazado 54" class="cls-1" d="M3.5,32.785a3,3,0,0,0,.574-.056l4.552-.888a3.64,3.64,0,0,0,1.884-1L31.838,9.506a3.275,3.275,0,0,0,0-4.627L28.417,1.458a3.272,3.272,0,0,0-4.627,0L2.457,22.791a3.641,3.641,0,0,0-1,1.884L.567,29.226A2.987,2.987,0,0,0,3.5,32.785ZM26.1,2.911a.858.858,0,0,1,.609.252l3.421,3.421a.861.861,0,0,1,0,1.218l-2.4,2.4L23.09,5.567l2.4-2.4A.858.858,0,0,1,26.1,2.911ZM4.893,23.765,21.386,7.272l4.639,4.639L9.532,28.4Zm2.459,5.868-3.744.73a.575.575,0,0,1-.676-.675l.73-3.744Z" transform="translate(-0.483 -0.472)"/>
      <path id="Trazado_55" data-name="Trazado 55" class="cls-1" d="M3.025,32.341A3.015,3.015,0,0,1,.068,28.749L.956,24.2a3.669,3.669,0,0,1,1.01-1.9L23.3.966a3.3,3.3,0,0,1,4.666,0l3.421,3.421a3.3,3.3,0,0,1,0,4.666L10.054,30.387a3.668,3.668,0,0,1-1.9,1.01L3.6,32.285A3.03,3.03,0,0,1,3.025,32.341ZM25.632.056a3.222,3.222,0,0,0-2.293.95L2.006,22.339a3.613,3.613,0,0,0-.995,1.869L.123,28.76a2.957,2.957,0,0,0,3.47,3.47l4.552-.888a3.611,3.611,0,0,0,1.869-.995L31.347,9.014a3.247,3.247,0,0,0,0-4.587L27.926,1.006A3.223,3.223,0,0,0,25.632.056ZM3.025,29.931a.6.6,0,0,1-.591-.72l.741-3.8,3.763,3.763-3.8.741A.616.616,0,0,1,3.025,29.931Zm.185-4.4-.72,3.692a.548.548,0,0,0,.535.653.552.552,0,0,0,.107-.01l3.692-.72ZM9.06,27.971,4.382,23.293,20.914,6.76l4.679,4.679Zm-4.6-4.679,4.6,4.6L25.513,11.439l-4.6-4.6Zm22.8-13.519L22.579,5.1,25,2.671a.889.889,0,0,1,1.257,0l3.421,3.421a.889.889,0,0,1,0,1.257ZM22.659,5.1l4.6,4.6L29.642,7.31a.833.833,0,0,0,0-1.178L26.221,2.711a.833.833,0,0,0-1.178,0Z" transform="translate(-0.012)"/>
    </g>
  </g>
</svg>
