<svg xmlns="http://www.w3.org/2000/svg" width="24.16" height="35.558" viewBox="0 0 24.16 35.558">
  <defs>
    <style>
      .cls-1 {
        fill: #fff;
      }
    </style>
  </defs>
  <g id="Grupo_63" data-name="Grupo 63" transform="translate(-94.423)">
    <g id="Grupo_39" data-name="Grupo 39" transform="translate(99.649)">
      <path id="Trazado_56" data-name="Trazado 56" class="cls-1" d="M183.4,22.532a6.416,6.416,0,0,0,4.545,1.883h.792a6.424,6.424,0,0,0,6.427-6.427V6.927A6.424,6.424,0,0,0,188.736.5h-.792a6.424,6.424,0,0,0-6.427,6.427v11.06a6.416,6.416,0,0,0,1.882,4.545Zm.7-15.6a3.842,3.842,0,0,1,3.842-3.842h.792a3.842,3.842,0,0,1,3.842,3.842v11.06a3.842,3.842,0,0,1-3.842,3.842h-.792a3.842,3.842,0,0,1-3.842-3.842Z" transform="translate(-181.487 -0.47)"/>
      <path id="Trazado_57" data-name="Trazado 57" class="cls-1" d="M188.265,23.975h-.792a6.454,6.454,0,0,1-6.457-6.457V6.457A6.454,6.454,0,0,1,187.473,0h.792a6.454,6.454,0,0,1,6.457,6.457v11.06a6.454,6.454,0,0,1-6.457,6.457ZM187.473.06a6.394,6.394,0,0,0-6.4,6.4v11.06a6.394,6.394,0,0,0,6.4,6.4h.792a6.394,6.394,0,0,0,6.4-6.4V6.457a6.394,6.394,0,0,0-6.4-6.4Zm.792,21.329h-.792a3.876,3.876,0,0,1-3.872-3.872V6.457a3.876,3.876,0,0,1,3.872-3.872h.792a3.876,3.876,0,0,1,3.872,3.872v11.06A3.876,3.876,0,0,1,188.265,21.389Zm-.792-18.743a3.816,3.816,0,0,0-3.811,3.811v11.06a3.816,3.816,0,0,0,3.811,3.811h.792a3.816,3.816,0,0,0,3.811-3.811V6.457a3.816,3.816,0,0,0-3.811-3.811Z" transform="translate(-181.016)"/>
    </g>
    <g id="Grupo_40" data-name="Grupo 40" transform="translate(94.423 14.759)">
      <path id="Trazado_58" data-name="Trazado 58" class="cls-1" d="M111.662,258.2a12.041,12.041,0,0,0,7.359-11.1v-.776a1.293,1.293,0,0,0-2.586,0v.776a9.464,9.464,0,1,1-18.928,0v-.776a1.293,1.293,0,0,0-2.586,0v.776a12.04,12.04,0,0,0,10.757,11.981v4.1h-2.945a1.293,1.293,0,1,0,0,2.586h8.475a1.293,1.293,0,1,0,0-2.586h-2.945v-4.1A11.94,11.94,0,0,0,111.662,258.2Z" transform="translate(-94.891 -244.994)"/>
      <path id="Trazado_59" data-name="Trazado 59" class="cls-1" d="M110.74,265.323h-8.475a1.323,1.323,0,1,1,0-2.646h2.915v-4.046a12.071,12.071,0,0,1-10.757-12.008v-.776a1.323,1.323,0,0,1,2.646,0v.776a9.434,9.434,0,0,0,18.868,0v-.776a1.323,1.323,0,0,1,2.646,0v.776a12.07,12.07,0,0,1-10.757,12.008v4.046h2.915a1.323,1.323,0,1,1,0,2.646Zm-8.475-2.586a1.263,1.263,0,1,0,0,2.525h8.475a1.263,1.263,0,1,0,0-2.525h-2.975v-4.161l.027,0a12.011,12.011,0,0,0,10.73-11.951v-.776a1.263,1.263,0,0,0-2.525,0v.776a9.494,9.494,0,1,1-18.989,0v-.776a1.263,1.263,0,0,0-2.525,0v.776a12.01,12.01,0,0,0,10.73,11.951l.027,0v4.161Z" transform="translate(-94.423 -244.524)"/>
    </g>
  </g>
</svg>
