<svg xmlns="http://www.w3.org/2000/svg" width="37.888" height="25.625" viewBox="0 0 37.888 25.625">
  <defs>
    <style>
      .cls-1 {
        fill: #fff;
      }
    </style>
  </defs>
  <g id="Grupo_73" data-name="Grupo 73" transform="translate(-399.731 -472.3)">
    <path id="Trazado_64" data-name="Trazado 64" class="cls-1" d="M422.553,497.925H406.409a6.685,6.685,0,0,1-6.678-6.678v-12.27a6.685,6.685,0,0,1,6.678-6.678H422.56a6.688,6.688,0,0,1,6.608,5.713l4.477-2.583a2.64,2.64,0,0,1,3.974,2.28V492.5a2.653,2.653,0,0,1-3.973,2.3l-4.485-2.587A6.688,6.688,0,0,1,422.553,497.925ZM406.409,474.63a4.352,4.352,0,0,0-4.347,4.347v12.27a4.352,4.352,0,0,0,4.347,4.347h16.144a4.352,4.352,0,0,0,4.347-4.347v-3.029l7.908,4.562a.312.312,0,0,0,.321,0,.306.306,0,0,0,.16-.277v-14.79a.305.305,0,0,0-.16-.273.287.287,0,0,0-.3,0l-.012.007-7.908,4.562v-3.029a4.352,4.352,0,0,0-4.347-4.347Z"/>
  </g>
</svg>
